<?xml version="1.0" standalone="no"?>
<!DOCTYPE svg PUBLIC "-//W3C//DTD SVG 1.1//EN" "http://www.w3.org/Graphics/SVG/1.1/DTD/svg11.dtd" >
<svg xmlns="http://www.w3.org/2000/svg" xmlns:xlink="http://www.w3.org/1999/xlink" version="1.1">
<metadata>
Created by FontForge 20200314 at Tue Mar 10 23:26:50 2015
 By Unknown
Copyright (c) 2014 by Michael Hagemann All rights reserved.
</metadata>
<defs>
<font id="MagnumSansW01-ExtraBlack" horiz-adv-x="653" >
  <font-face 
    font-family="MagnumSansW01-ExtraBlack"
    font-weight="1000"
    font-stretch="normal"
    units-per-em="1000"
    panose-1="2 0 0 0 0 0 0 0 0 0"
    ascent="800"
    descent="-200"
    x-height="700"
    cap-height="700"
    bbox="-20 -220 1274 933"
    underline-thickness="50"
    underline-position="-175"
    unicode-range="U+000D-2122"
  />
<missing-glyph horiz-adv-x="534" 
d="M484 0h-434v740h434v-740zM68 18h200v703h-200v-703z" />
    <glyph glyph-name=".notdef" horiz-adv-x="534" 
d="M484 0h-434v740h434v-740zM68 18h200v703h-200v-703z" />
    <glyph glyph-name="glyph1" horiz-adv-x="475" 
 />
    <glyph glyph-name="glyph1" horiz-adv-x="475" 
 />
    <glyph glyph-name="uni000D" unicode="&#xd;" horiz-adv-x="365" 
 />
    <glyph glyph-name="space" unicode=" " horiz-adv-x="365" 
 />
    <glyph glyph-name="exclam" unicode="!" horiz-adv-x="360" 
d="M50 700h260l-53 -475h-153zM77 82q0 45 28.5 72.5t75.5 27.5q46 0 75.5 -27.5t29.5 -72.5t-29.5 -72.5t-75.5 -27.5q-47 0 -75.5 27.5t-28.5 72.5z" />
    <glyph glyph-name="quotedbl" unicode="&#x22;" horiz-adv-x="448" 
d="M48 700h156l-27 -258h-102zM244 700h156l-27 -258h-102z" />
    <glyph glyph-name="numbersign" unicode="#" 
d="M90 156h-70l29 126h66l26 107h-67l31 127h63l36 156h147l-37 -156h93l36 156h144l-36 -156h72l-29 -127h-71l-25 -107h70l-28 -126h-69l-33 -156h-145l35 156h-92l-35 -156h-146zM355 282l24 107h-92l-23 -107h91z" />
    <glyph glyph-name="dollar" unicode="$" 
d="M266 24q-64 7 -119 26t-101 56l75 133q26 -20 53.5 -33t54 -20t50.5 -9.5t44 -2.5q31 0 49 10t18 30q0 25 -24.5 35t-61.5 16t-80.5 13.5t-80.5 27t-61.5 57.5t-24.5 104q0 31 10 62.5t34 57.5t64 43t101 20v67h128v-71q43 -4 92 -17t87 -34l-55 -143q-27 13 -56 22
t-56.5 14.5t-51 7.5t-38.5 2q-43 0 -43 -24q0 -17 24.5 -24.5t62 -13t80.5 -15t80.5 -30.5t62 -59t24.5 -101q0 -40 -13 -75.5t-39 -62.5t-66 -45t-95 -24v-68h-128v68z" />
    <glyph glyph-name="percent" unicode="%" horiz-adv-x="842" 
d="M24 510q0 85 44.5 128.5t125.5 43.5t125 -44t44 -129q0 -84 -44 -127t-125 -43t-125.5 43.5t-44.5 127.5zM479 160q0 85 44.5 128.5t125.5 43.5t125 -44t44 -129q0 -83 -44 -126.5t-125 -43.5t-125.5 44t-44.5 127zM583 672h139l-467 -672h-136zM147 509
q0 -40 12.5 -57.5t34.5 -17.5t34.5 17.5t12.5 57.5q0 42 -12.5 59.5t-34.5 17.5t-34.5 -17.5t-12.5 -59.5zM602 159q0 -40 12.5 -57.5t34.5 -17.5t34.5 17.5t12.5 57.5q0 42 -12.5 60t-34.5 18t-34.5 -18t-12.5 -60z" />
    <glyph glyph-name="ampersand" unicode="&#x26;" horiz-adv-x="833" 
d="M60 188q0 83 45.5 133t125.5 76q-30 34 -48 72t-18 73q0 81 59 131.5t182 50.5q59 0 101.5 -13.5t70 -36.5t40.5 -55.5t13 -69.5q0 -60 -33 -101.5t-101 -70.5l71 -93q3 6 6 16.5t4.5 21.5t2.5 22t1 19h141q0 -69 -15.5 -122.5t-43.5 -85.5l119 -155h-248l-28 37
q-29 -22 -80 -38.5t-114 -16.5q-120 0 -186.5 50.5t-66.5 155.5zM320 278q-17 -16 -25 -39.5t-8 -46.5q0 -29 15 -43.5t40 -14.5q23 0 41 6.5t32 14.5zM376 559q0 -10 4.5 -21.5t11.5 -23.5t15 -23t16 -20q26 18 37.5 41.5t11.5 46.5q0 22 -13.5 34.5t-33.5 12.5
q-22 0 -35.5 -12t-13.5 -35z" />
    <glyph glyph-name="quotesingle" unicode="'" horiz-adv-x="290" 
d="M48 700h194l-32 -258h-130z" />
    <glyph glyph-name="parenleft" unicode="(" horiz-adv-x="419" 
d="M231 349q0 -134 37.5 -236.5t100.5 -176.5l-122 -89q-95 101 -151 224t-56 278q0 79 15.5 150t43.5 134t65.5 118t82.5 102l119 -89q-57 -66 -96 -171.5t-39 -243.5z" />
    <glyph glyph-name="parenright" unicode=")" horiz-adv-x="419" 
d="M188 349q0 138 -39 243.5t-96 171.5l119 89q45 -47 82.5 -102t65.5 -118t43.5 -134t15.5 -150q0 -78 -14.5 -147t-41.5 -131t-65.5 -117.5t-85.5 -106.5l-122 89q63 74 100.5 176.5t37.5 236.5z" />
    <glyph glyph-name="asterisk" unicode="*" horiz-adv-x="571" 
d="M178 474l-126 16l64 166l92 -63l-25 107h205l-25 -106l92 61l64 -161l-125 -20l97 -87l-150 -107l-54 116l-56 -116l-153 108z" />
    <glyph glyph-name="plus" unicode="+" horiz-adv-x="592" 
d="M366 270v-160h-140v160h-160v140h160v160h140v-160h160v-140h-160z" />
    <glyph glyph-name="comma" unicode="," horiz-adv-x="316" 
d="M85 142h194l-94 -278h-135z" />
    <glyph glyph-name="hyphen" unicode="-" horiz-adv-x="477" 
d="M40 408h397v-136h-397v136z" />
    <glyph glyph-name="period" unicode="." horiz-adv-x="373" 
d="M82 82q0 45 28.5 72.5t75.5 27.5q46 0 75.5 -27.5t29.5 -72.5t-29.5 -72.5t-75.5 -27.5q-47 0 -75.5 27.5t-28.5 72.5z" />
    <glyph glyph-name="slash" unicode="/" horiz-adv-x="587" 
d="M205 -110h-180l356 919h180z" />
    <glyph glyph-name="zero" unicode="0" 
d="M325 -15q-152 0 -226 88.5t-74 262.5q0 81 18 145.5t54.5 110t93 69.5t134.5 24q79 0 136 -24t94 -69t55 -109.5t18 -146.5q0 -174 -74.5 -262.5t-228.5 -88.5zM327 155q38 0 54 43.5t16 137.5q0 90 -16 135t-55 45q-38 0 -54.5 -45t-16.5 -135q0 -94 17 -137.5t55 -43.5
z" />
    <glyph glyph-name="one" unicode="1" 
d="M222 170v270l-46 -36l-101 147l166 121h211v-502h129v-170h-484v170h125z" />
    <glyph glyph-name="two" unicode="2" 
d="M311 516q-38 0 -89 -15.5t-96 -55.5l-90 153q109 87 283 87q79 0 134.5 -16t90 -45t50 -69t15.5 -87q0 -58 -19.5 -96t-50 -62.5t-67 -39.5t-71.5 -29t-63 -30t-41 -41h318v-170h-584q0 80 15 138.5t39.5 100.5t55.5 69.5t64 46t64 31.5t55.5 24.5t39.5 24.5t15 33
q0 23 -15.5 35.5t-52.5 12.5z" />
    <glyph glyph-name="three" unicode="3" 
d="M320 -15q-87 0 -156.5 22t-125.5 73l94 147q45 -42 87 -57t86 -15q35 0 56.5 14.5t21.5 48.5q0 38 -24 51t-59 13h-49v126h47q27 0 45.5 11t18.5 43q0 54 -66 54q-28 0 -73 -14.5t-87 -46.5l-89 143q56 44 120 65.5t145 21.5q76 0 129 -15.5t86.5 -42.5t48.5 -63t15 -77
q0 -20 -4 -39.5t-13.5 -37t-26.5 -32t-44 -24.5v-4q31 -7 52.5 -23t34 -37t18 -45t5.5 -47q0 -97 -71 -155t-222 -58z" />
    <glyph glyph-name="four" unicode="4" 
d="M25 280l290 392h226v-385h81v-155h-81v-132h-230v132h-286v148zM311 287v142l-106 -142h106z" />
    <glyph glyph-name="five" unicode="5" 
d="M301 155q91 0 91 75q0 37 -19.5 58.5t-59.5 21.5q-23 0 -44.5 -11t-34.5 -42l-174 46l63 369h462l-28 -170h-270l-20 -112q30 29 69 40.5t80 11.5q42 0 79 -10t65.5 -34.5t45 -65.5t16.5 -103q0 -63 -21.5 -109t-59.5 -76t-91 -44.5t-116 -14.5q-94 0 -167.5 20
t-137.5 68l87 148q44 -32 92 -49t93 -17z" />
    <glyph glyph-name="six" unicode="6" 
d="M329 155q34 0 51 26t17 69q0 41 -16.5 68t-51.5 27t-52 -27t-17 -68t17 -68t52 -27zM370 517q-21 0 -40.5 -4.5t-35 -17.5t-25.5 -35t-11 -56q14 17 32.5 28t39 17t41 8.5t37.5 2.5q109 0 162.5 -56t53.5 -158q0 -129 -72 -195t-223 -66q-77 0 -133.5 24t-93.5 69.5
t-55 110.5t-18 146q0 176 77 263t226 87q63 0 124 -8.5t119 -34.5l-45 -153q-45 16 -83.5 22t-76.5 6z" />
    <glyph glyph-name="seven" unicode="7" 
d="M143 0q0 77 10 146.5t34.5 132.5t66 118.5t104.5 104.5h-312v170h561v-154q-69 -48 -114 -104t-71.5 -120.5t-36.5 -138t-10 -155.5h-232z" />
    <glyph glyph-name="eight" unicode="8" 
d="M255 224q0 -36 18.5 -52.5t52.5 -16.5t52.5 17t18.5 52t-18.5 51t-52.5 16q-32 0 -51.5 -16t-19.5 -51zM270 461q0 -29 15 -42.5t41 -13.5q27 0 42 13.5t15 42.5q0 27 -15 41t-42 14q-26 0 -41 -14t-15 -41zM326 -15q-148 0 -224.5 56t-76.5 159q0 22 5.5 45t17.5 43
t31.5 36.5t48.5 26.5v3q-26 14 -43 30.5t-27 34.5t-14 37t-4 38q0 88 69.5 139.5t216.5 51.5q148 0 217 -51.5t69 -139.5q0 -38 -17 -74t-70 -66v-3q29 -10 48.5 -26.5t31.5 -37t17.5 -43t5.5 -44.5q0 -103 -76.5 -159t-225.5 -56z" />
    <glyph glyph-name="nine" unicode="9" 
d="M324 516q-35 0 -52 -26.5t-17 -69.5q0 -41 17 -68t52 -27t52 27t17 68t-17 68.5t-52 27.5zM283 153q21 0 40.5 4.5t35 17.5t25.5 34.5t11 56.5q-14 -17 -32 -28t-37.5 -17t-39.5 -8.5t-37 -2.5q-109 0 -164.5 62t-55.5 171q0 52 16.5 96.5t52.5 77t92 50.5t134 18
q79 0 136 -24t93.5 -69.5t53.5 -110.5t17 -146q0 -176 -77.5 -263t-225.5 -87q-63 0 -124 8.5t-119 34.5l45 153q44 -16 83 -22t77 -6z" />
    <glyph glyph-name="colon" unicode=":" horiz-adv-x="349" 
d="M80 82q0 45 28.5 72.5t75.5 27.5q46 0 75.5 -27.5t29.5 -72.5t-29.5 -72.5t-75.5 -27.5q-47 0 -75.5 27.5t-28.5 72.5zM80 423q0 45 28.5 72.5t75.5 27.5q46 0 75.5 -27.5t29.5 -72.5t-29.5 -72.5t-75.5 -27.5q-47 0 -75.5 27.5t-28.5 72.5z" />
    <glyph glyph-name="semicolon" unicode=";" horiz-adv-x="372" 
d="M103 423q0 45 28.5 72.5t75.5 27.5q46 0 75.5 -27.5t29.5 -72.5t-29.5 -72.5t-75.5 -27.5q-47 0 -75.5 27.5t-28.5 72.5zM115 142h194l-94 -278h-135z" />
    <glyph glyph-name="less" unicode="&#x3c;" horiz-adv-x="638" 
d="M61 416l495 184v-163l-281 -100l281 -100v-164l-495 185v158z" />
    <glyph glyph-name="equal" unicode="=" horiz-adv-x="577" 
d="M66 312h445v-127h-445v127zM66 496h445v-127h-445v127z" />
    <glyph glyph-name="greater" unicode="&#x3e;" horiz-adv-x="636" 
d="M576 258l-495 -185v164l281 100l-281 100v163l495 -184v-158z" />
    <glyph glyph-name="question" unicode="?" horiz-adv-x="673" 
d="M343 718q76 0 129 -16t86.5 -44t49 -66.5t15.5 -83.5q0 -44 -12.5 -74t-32 -52t-43 -39.5t-45.5 -36.5t-40 -42.5t-25 -57.5h-187q0 55 12 90.5t30 59.5t38.5 39t38.5 29t30 30t12 41q0 20 -16.5 32t-45.5 12q-18 0 -40.5 -2.5t-49.5 -9.5t-57.5 -20t-64.5 -35l-75 163
q64 43 135 63t158 20zM229 82q0 45 28.5 72.5t75.5 27.5q46 0 75.5 -27.5t29.5 -72.5t-29.5 -72.5t-75.5 -27.5q-47 0 -75.5 27.5t-28.5 72.5z" />
    <glyph glyph-name="at" unicode="@" horiz-adv-x="806" 
d="M454 208q-25 -37 -59.5 -52.5t-76.5 -15.5q-60 0 -95.5 37t-35.5 108q0 47 12 94.5t36.5 86t61 62.5t85.5 24q64 0 80 -51l10 34h116l-50 -209q-3 -12 -5 -23.5t-2 -18.5q0 -27 14 -37t36 -10q38 0 55.5 30.5t17.5 87.5q0 121 -64 189t-185 68q-57 0 -103.5 -19
t-79.5 -53t-51 -81.5t-18 -103.5q0 -131 65.5 -198.5t185.5 -67.5q38 0 75 8.5t66 23.5l37 -95q-15 -9 -36.5 -16.5t-45.5 -12.5t-49 -8t-47 -3q-86 0 -153.5 28t-114.5 77.5t-72 117t-25 146.5q0 77 26 143t74 114t115.5 75t150.5 27t150 -26t114 -73.5t72.5 -113.5
t25.5 -146q0 -42 -10 -81t-32.5 -69t-59 -47.5t-89.5 -17.5q-40 0 -72.5 14.5t-49.5 53.5zM400 458q-20 0 -37 -17t-29.5 -42.5t-19.5 -56t-7 -57.5q0 -20 8.5 -32t25.5 -12q22 0 40 17.5t30 43.5t18.5 55t6.5 53q0 18 -8 33t-28 15z" />
    <glyph glyph-name="A" unicode="A" horiz-adv-x="827" 
d="M491 131h-155l-28 -131h-298l216 700h375l216 -700h-299zM369 282h91l-41 199h-6z" />
    <glyph glyph-name="B" unicode="B" horiz-adv-x="794" 
d="M50 700h421q73 0 122 -14.5t79 -40.5t43 -61.5t13 -77.5q0 -36 -17.5 -72t-69.5 -62q62 -20 86 -63.5t24 -94.5q0 -48 -12.5 -87t-43.5 -67.5t-84.5 -44t-134.5 -15.5h-426v700zM389 428q24 0 38.5 13.5t14.5 43.5q0 31 -15 43.5t-38 12.5h-49v-113h49zM396 158
q29 0 49 16.5t20 53.5q0 38 -18.5 55t-50.5 17h-56v-142h56z" />
    <glyph glyph-name="C" unicode="C" horiz-adv-x="757" 
d="M721 72q-36 -26 -69.5 -43t-69 -27.5t-74 -15t-85.5 -4.5q-86 0 -157 23t-121 69t-77.5 114.5t-27.5 160.5q0 91 27.5 160.5t77.5 115.5t121 69.5t157 23.5q41 0 76 -3.5t68 -11.5t64.5 -20.5t66.5 -30.5l-72 -170q-44 27 -79.5 38t-67.5 11q-26 0 -51 -9t-44.5 -30.5
t-31.5 -56t-12 -85.5t11 -85.5t30 -56t44 -30.5t54 -9q40 0 77 16t71 51z" />
    <glyph glyph-name="D" unicode="D" horiz-adv-x="809" 
d="M50 0v700h321q207 0 300.5 -86.5t93.5 -264.5t-93.5 -263.5t-300.5 -85.5h-321zM340 168h22q56 0 81 40.5t25 140.5t-25.5 141t-80.5 41h-22v-363z" />
    <glyph glyph-name="E" unicode="E" horiz-adv-x="735" 
d="M50 700h626v-184h-336v-79h270v-169h-270v-79h350v-189h-640v700z" />
    <glyph glyph-name="F" unicode="F" horiz-adv-x="690" 
d="M51 700h609v-185h-319v-109h243v-169h-243v-237h-290v700z" />
    <glyph glyph-name="G" unicode="G" horiz-adv-x="824" 
d="M433 718q44 0 82.5 -3t74.5 -11.5t72 -23t75 -36.5l-81 -171q-52 35 -93 46.5t-76 11.5q-29 0 -55.5 -9t-47 -30.5t-33 -56t-12.5 -85.5q0 -48 8 -82t21 -55.5t30 -32t36 -10.5q14 0 28 2.5t24 8.5v56h-52v175h332v-310q-34 -31 -70.5 -53.5t-78 -37.5t-89.5 -22t-105 -7
q-94 0 -165.5 25.5t-120 73t-73 115.5t-24.5 153q0 91 28 160.5t79 115.5t123.5 69.5t162.5 23.5z" />
    <glyph glyph-name="H" unicode="H" horiz-adv-x="803" 
d="M50 700h290v-259h123v259h290v-700h-290v262h-123v-262h-290v700z" />
    <glyph glyph-name="I" unicode="I" horiz-adv-x="400" 
d="M55 700h290v-700h-290v700z" />
    <glyph glyph-name="J" unicode="J" horiz-adv-x="617" 
d="M226 184q9 0 18 2.5t16.5 9t12 19t4.5 32.5v453h290v-463q0 -68 -19.5 -116.5t-55.5 -79.5t-88 -45t-118 -14q-78 0 -143 18t-125 66l82 172q42 -33 73.5 -43.5t52.5 -10.5z" />
    <glyph glyph-name="K" unicode="K" horiz-adv-x="834" 
d="M339 0h-290v700h290v-230h2l115 230h333l-203 -326l228 -374h-336l-137 260h-2v-260z" />
    <glyph glyph-name="L" unicode="L" horiz-adv-x="687" 
d="M50 0v700h290v-496h299v-204h-589z" />
    <glyph glyph-name="M" unicode="M" horiz-adv-x="948" 
d="M88 700h326l57 -357h6l57 357h326l48 -700h-273l-9 345h-6l-60 -345h-172l-60 345h-6l-9 -345h-273z" />
    <glyph glyph-name="N" unicode="N" horiz-adv-x="795" 
d="M50 700h284l140 -332h5v332h266v-700h-284l-140 329h-5v-329h-266v700z" />
    <glyph glyph-name="O" unicode="O" horiz-adv-x="862" 
d="M430 -18q-94 0 -166.5 26.5t-122 74.5t-75.5 116t-26 151q0 82 26 150t75.5 116t122.5 74.5t166 26.5t166 -26.5t123 -74.5t76.5 -116t26.5 -150q0 -83 -26 -151t-76 -116t-123 -74.5t-167 -26.5zM430 169q45 0 68.5 47.5t23.5 133.5q0 85 -23.5 133t-68.5 48
q-44 0 -67 -48t-23 -133q0 -86 23.5 -133.5t66.5 -47.5z" />
    <glyph glyph-name="P" unicode="P" horiz-adv-x="753" 
d="M362 390q34 0 50 19t16 53q0 32 -15.5 50.5t-50.5 18.5h-22v-141h22zM50 700h398q76 0 128 -17.5t83.5 -49t45 -75.5t13.5 -97t-13.5 -96.5t-45 -75.5t-83.5 -49.5t-128 -17.5h-108v-222h-290v700z" />
    <glyph glyph-name="Q" unicode="Q" horiz-adv-x="858" 
d="M554 1q-26 -9 -58.5 -14t-67.5 -5q-94 0 -166 26.5t-121.5 74.5t-75 116t-25.5 151q0 82 25.5 150t75 116t122 74.5t165.5 26.5t165.5 -26.5t122.5 -74.5t76 -116t26 -150q0 -79 -23.5 -144.5t-68.5 -113.5l114 -132h-249zM430 169q45 0 68.5 47.5t23.5 133.5
q0 85 -23.5 133t-68.5 48q-44 0 -67 -48t-23 -133q0 -86 23.5 -133.5t66.5 -47.5z" />
    <glyph glyph-name="R" unicode="R" horiz-adv-x="815" 
d="M50 700h432q74 0 123 -17.5t78.5 -47.5t42 -71t12.5 -89q0 -24 -4 -50.5t-15.5 -51t-32.5 -46.5t-55 -37l144 -290h-314l-117 257h-4v-257h-290v700zM385 414q34 0 47.5 19t13.5 44q0 29 -13 47.5t-48 18.5h-45v-129h45z" />
    <glyph glyph-name="S" unicode="S" horiz-adv-x="712" 
d="M382 -18q-100 0 -188.5 20.5t-162.5 67.5l84 169q55 -37 109 -56t103 -19q32 0 47.5 8t15.5 28q0 23 -25 33t-62 18.5t-80.5 19.5t-80.5 36t-62 68t-25 115q0 43 16 84t50.5 72.5t88 51t128.5 19.5q91 0 166 -15.5t142 -41.5l-54 -168q-31 12 -57 21t-50 15.5t-46.5 9.5
t-46.5 3q-20 0 -29.5 -9t-9.5 -18q0 -24 24.5 -35.5t62 -21t80.5 -21t80.5 -36t62 -66.5t24.5 -112q0 -50 -18 -93.5t-55.5 -76t-95 -51.5t-136.5 -19z" />
    <glyph glyph-name="T" unicode="T" horiz-adv-x="732" 
d="M221 501h-193v199h676v-199h-193v-501h-290v501z" />
    <glyph glyph-name="U" unicode="U" horiz-adv-x="772" 
d="M50 700h290v-437q0 -51 11.5 -72.5t34.5 -21.5q24 0 35 21t11 73v437h290v-443q0 -70 -24 -122t-68.5 -86t-106.5 -50.5t-137 -16.5t-137 17t-106.5 51t-68.5 86t-24 121v443z" />
    <glyph glyph-name="V" unicode="V" horiz-adv-x="781" 
d="M10 700h298l82 -420h6l76 420h299l-213 -700h-335z" />
    <glyph glyph-name="W" unicode="W" horiz-adv-x="1031" 
d="M10 700h291l48 -350h6l51 350h219l51 -350h6l48 350h291l-177 -700h-269l-57 350h-6l-56 -350h-269z" />
    <glyph glyph-name="X" unicode="X" horiz-adv-x="842" 
d="M271 360l-229 340h315l63 -140l64 140h316l-230 -340l244 -360h-320l-74 156l-74 -156h-318z" />
    <glyph glyph-name="Y" unicode="Y" horiz-adv-x="837" 
d="M273 265l-263 435h317l92 -224h7l83 224h318l-264 -435v-265h-290v265z" />
    <glyph glyph-name="Z" unicode="Z" horiz-adv-x="755" 
d="M28 0v152l317 359h-285v189h641v-152l-318 -359h338v-189h-693z" />
    <glyph glyph-name="bracketleft" unicode="[" horiz-adv-x="380" 
d="M45 809h280v-163h-85v-593h85v-163h-280v919z" />
    <glyph glyph-name="backslash" unicode="\" horiz-adv-x="587" 
d="M26 809h180l356 -919h-180z" />
    <glyph glyph-name="bracketright" unicode="]" horiz-adv-x="380" 
d="M335 -110h-280v163h85v593h-85v163h280v-919z" />
    <glyph glyph-name="asciicircum" unicode="^" horiz-adv-x="624" 
d="M181 700h263l130 -305h-221l-41 141l-41 -141h-221z" />
    <glyph glyph-name="underscore" unicode="_" horiz-adv-x="592" 
d="M-20 -118h632v-102h-632v102z" />
    <glyph glyph-name="grave" unicode="`" horiz-adv-x="318" 
d="M305 760h-141l-115 155h196z" />
    <glyph glyph-name="a" unicode="a" horiz-adv-x="827" 
d="M491 131h-155l-28 -131h-298l216 700h375l216 -700h-299zM369 282h91l-41 199h-6z" />
    <glyph glyph-name="b" unicode="b" horiz-adv-x="794" 
d="M50 700h421q73 0 122 -14.5t79 -40.5t43 -61.5t13 -77.5q0 -36 -17.5 -72t-69.5 -62q62 -20 86 -63.5t24 -94.5q0 -48 -12.5 -87t-43.5 -67.5t-84.5 -44t-134.5 -15.5h-426v700zM389 428q24 0 38.5 13.5t14.5 43.5q0 31 -15 43.5t-38 12.5h-49v-113h49zM396 158
q29 0 49 16.5t20 53.5q0 38 -18.5 55t-50.5 17h-56v-142h56z" />
    <glyph glyph-name="c" unicode="c" horiz-adv-x="757" 
d="M721 72q-36 -26 -69.5 -43t-69 -27.5t-74 -15t-85.5 -4.5q-86 0 -157 23t-121 69t-77.5 114.5t-27.5 160.5q0 91 27.5 160.5t77.5 115.5t121 69.5t157 23.5q41 0 76 -3.5t68 -11.5t64.5 -20.5t66.5 -30.5l-72 -170q-44 27 -79.5 38t-67.5 11q-26 0 -51 -9t-44.5 -30.5
t-31.5 -56t-12 -85.5t11 -85.5t30 -56t44 -30.5t54 -9q40 0 77 16t71 51z" />
    <glyph glyph-name="d" unicode="d" horiz-adv-x="809" 
d="M50 0v700h321q207 0 300.5 -86.5t93.5 -264.5t-93.5 -263.5t-300.5 -85.5h-321zM340 168h22q56 0 81 40.5t25 140.5t-25.5 141t-80.5 41h-22v-363z" />
    <glyph glyph-name="e" unicode="e" horiz-adv-x="735" 
d="M50 700h626v-184h-336v-79h270v-169h-270v-79h350v-189h-640v700z" />
    <glyph glyph-name="f" unicode="f" horiz-adv-x="690" 
d="M51 700h609v-185h-319v-109h243v-169h-243v-237h-290v700z" />
    <glyph glyph-name="g" unicode="g" horiz-adv-x="824" 
d="M433 718q44 0 82.5 -3t74.5 -11.5t72 -23t75 -36.5l-81 -171q-52 35 -93 46.5t-76 11.5q-29 0 -55.5 -9t-47 -30.5t-33 -56t-12.5 -85.5q0 -48 8 -82t21 -55.5t30 -32t36 -10.5q14 0 28 2.5t24 8.5v56h-52v175h332v-310q-34 -31 -70.5 -53.5t-78 -37.5t-89.5 -22t-105 -7
q-94 0 -165.5 25.5t-120 73t-73 115.5t-24.5 153q0 91 28 160.5t79 115.5t123.5 69.5t162.5 23.5z" />
    <glyph glyph-name="h" unicode="h" horiz-adv-x="803" 
d="M50 700h290v-259h123v259h290v-700h-290v262h-123v-262h-290v700z" />
    <glyph glyph-name="i" unicode="i" horiz-adv-x="400" 
d="M55 700h290v-700h-290v700z" />
    <glyph glyph-name="j" unicode="j" horiz-adv-x="617" 
d="M226 184q9 0 18 2.5t16.5 9t12 19t4.5 32.5v453h290v-463q0 -68 -19.5 -116.5t-55.5 -79.5t-88 -45t-118 -14q-78 0 -143 18t-125 66l82 172q42 -33 73.5 -43.5t52.5 -10.5z" />
    <glyph glyph-name="k" unicode="k" horiz-adv-x="834" 
d="M339 0h-290v700h290v-230h2l115 230h333l-203 -326l228 -374h-336l-137 260h-2v-260z" />
    <glyph glyph-name="l" unicode="l" horiz-adv-x="687" 
d="M50 0v700h290v-496h299v-204h-589z" />
    <glyph glyph-name="m" unicode="m" horiz-adv-x="948" 
d="M88 700h326l57 -357h6l57 357h326l48 -700h-273l-9 345h-6l-60 -345h-172l-60 345h-6l-9 -345h-273z" />
    <glyph glyph-name="n" unicode="n" horiz-adv-x="785" 
d="M50 700h284l130 -332h5v332h266v-700h-284l-130 329h-5v-329h-266v700z" />
    <glyph glyph-name="o" unicode="o" horiz-adv-x="862" 
d="M430 -18q-94 0 -166.5 26.5t-122 74.5t-75.5 116t-26 151q0 82 26 150t75.5 116t122.5 74.5t166 26.5t166 -26.5t123 -74.5t76.5 -116t26.5 -150q0 -83 -26 -151t-76 -116t-123 -74.5t-167 -26.5zM430 169q45 0 68.5 47.5t23.5 133.5q0 85 -23.5 133t-68.5 48
q-44 0 -67 -48t-23 -133q0 -86 23.5 -133.5t66.5 -47.5z" />
    <glyph glyph-name="p" unicode="p" horiz-adv-x="753" 
d="M362 390q34 0 50 19t16 53q0 32 -15.5 50.5t-50.5 18.5h-22v-141h22zM50 700h398q76 0 128 -17.5t83.5 -49t45 -75.5t13.5 -97t-13.5 -96.5t-45 -75.5t-83.5 -49.5t-128 -17.5h-108v-222h-290v700z" />
    <glyph glyph-name="q" unicode="q" horiz-adv-x="858" 
d="M554 1q-26 -9 -58.5 -14t-67.5 -5q-94 0 -166 26.5t-121.5 74.5t-75 116t-25.5 151q0 82 25.5 150t75 116t122 74.5t165.5 26.5t165.5 -26.5t122.5 -74.5t76 -116t26 -150q0 -79 -23.5 -144.5t-68.5 -113.5l114 -132h-249zM430 169q45 0 68.5 47.5t23.5 133.5
q0 85 -23.5 133t-68.5 48q-44 0 -67 -48t-23 -133q0 -86 23.5 -133.5t66.5 -47.5z" />
    <glyph glyph-name="r" unicode="r" horiz-adv-x="815" 
d="M50 700h432q74 0 123 -17.5t78.5 -47.5t42 -71t12.5 -89q0 -24 -4 -50.5t-15.5 -51t-32.5 -46.5t-55 -37l144 -290h-314l-117 257h-4v-257h-290v700zM385 414q34 0 47.5 19t13.5 44q0 29 -13 47.5t-48 18.5h-45v-129h45z" />
    <glyph glyph-name="s" unicode="s" horiz-adv-x="712" 
d="M382 -18q-100 0 -188.5 20.5t-162.5 67.5l84 169q55 -37 109 -56t103 -19q32 0 47.5 8t15.5 28q0 23 -25 33t-62 18.5t-80.5 19.5t-80.5 36t-62 68t-25 115q0 43 16 84t50.5 72.5t88 51t128.5 19.5q91 0 166 -15.5t142 -41.5l-54 -168q-31 12 -57 21t-50 15.5t-46.5 9.5
t-46.5 3q-20 0 -29.5 -9t-9.5 -18q0 -24 24.5 -35.5t62 -21t80.5 -21t80.5 -36t62 -66.5t24.5 -112q0 -50 -18 -93.5t-55.5 -76t-95 -51.5t-136.5 -19z" />
    <glyph glyph-name="t" unicode="t" horiz-adv-x="732" 
d="M221 501h-193v199h676v-199h-193v-501h-290v501z" />
    <glyph glyph-name="u" unicode="u" horiz-adv-x="772" 
d="M50 700h290v-437q0 -51 11.5 -72.5t34.5 -21.5q24 0 35 21t11 73v437h290v-443q0 -70 -24 -122t-68.5 -86t-106.5 -50.5t-137 -16.5t-137 17t-106.5 51t-68.5 86t-24 121v443z" />
    <glyph glyph-name="v" unicode="v" horiz-adv-x="781" 
d="M10 700h298l82 -420h6l76 420h299l-213 -700h-335z" />
    <glyph glyph-name="w" unicode="w" horiz-adv-x="1031" 
d="M10 700h291l48 -350h6l51 350h219l51 -350h6l48 350h291l-177 -700h-269l-57 350h-6l-56 -350h-269z" />
    <glyph glyph-name="x" unicode="x" horiz-adv-x="842" 
d="M271 360l-229 340h315l63 -140l64 140h316l-230 -340l244 -360h-320l-74 156l-74 -156h-318z" />
    <glyph glyph-name="y" unicode="y" horiz-adv-x="837" 
d="M273 265l-263 435h317l92 -224h7l83 224h318l-264 -435v-265h-290v265z" />
    <glyph glyph-name="z" unicode="z" horiz-adv-x="755" 
d="M28 0v152l317 359h-285v189h641v-152l-318 -359h338v-189h-693z" />
    <glyph glyph-name="braceleft" unicode="{" horiz-adv-x="413" 
d="M234 350q35 -23 44.5 -53.5t9.5 -63.5v-153q0 -27 27 -27h43v-163h-119q-44 0 -72.5 10t-45 28t-22.5 43t-6 56v202q0 40 -14 56t-39 22v85q26 7 39.5 22.5t13.5 55.5v203q0 31 6 56t22.5 43t45 27.5t72.5 9.5h119v-163h-45q-15 0 -20 -7t-5 -18v-154q0 -36 -10 -66
t-44 -47v-4z" />
    <glyph glyph-name="bar" unicode="|" horiz-adv-x="427" 
d="M110 780h207v-1000h-207v1000z" />
    <glyph glyph-name="braceright" unicode="}" horiz-adv-x="413" 
d="M179 354q-34 17 -44 47t-10 66v154q0 11 -5 18t-20 7h-45v163h119q44 0 72.5 -9.5t45 -27.5t22.5 -43t6 -56v-203q0 -40 13.5 -55.5t39.5 -22.5v-85q-25 -6 -39 -22t-14 -56v-202q0 -31 -6 -56t-22.5 -43t-45 -28t-72.5 -10h-119v163h43q27 0 27 27v153q0 33 9.5 63.5
t44.5 53.5v4z" />
    <glyph glyph-name="asciitilde" unicode="~" horiz-adv-x="634" 
d="M196 440q32 0 62 -6.5t58 -14t55.5 -13.5t55.5 -6q26 0 53.5 8t51.5 25l60 -142q-14 -14 -32.5 -23.5t-38.5 -15.5t-41 -8.5t-40 -2.5q-28 0 -58 6t-60.5 13.5t-59.5 14t-56 6.5q-23 0 -51 -8t-52 -25l-61 142q29 24 70.5 37t83.5 13z" />
    <glyph glyph-name="uni00A0" unicode="&#xa0;" horiz-adv-x="100" 
 />
    <glyph glyph-name="exclamdown" unicode="&#xa1;" horiz-adv-x="360" 
d="M104 475h153l53 -475h-260zM77 618q0 45 28.5 72.5t75.5 27.5q46 0 75.5 -27.5t29.5 -72.5t-29.5 -72.5t-75.5 -27.5q-47 0 -75.5 27.5t-28.5 72.5z" />
    <glyph glyph-name="cent" unicode="&#xa2;" 
d="M312 428q-41 0 -62.5 -25t-21.5 -67q0 -36 21 -63t63 -27q29 0 53 14.5t35 48.5l154 -46q-24 -63 -75 -100t-131 -44v-68h-86v67q-55 4 -94 23t-63.5 48.5t-35.5 67t-11 79.5t11.5 79t36.5 66t63.5 48t92.5 24v68h86v-68q83 -4 129 -41t68 -92l-149 -47q-13 26 -31 40.5
t-53 14.5z" />
    <glyph glyph-name="sterling" unicode="&#xa3;" 
d="M16 130q25 19 52 30t54 16q27 25 27 56q0 18 -9 41h-106v109h65q-15 26 -28.5 60t-13.5 62q0 33 11 65.5t41.5 58t85 41.5t141.5 16q112 0 175 -38.5t93 -123.5l-185 -78q-11 47 -28 68.5t-43 21.5q-23 0 -35.5 -13t-12.5 -33q0 -32 13.5 -59t20.5 -48h137v-109h-109
q4 -11 5.5 -22t1.5 -20q0 -20 -7 -32.5t-16 -24.5q13 -1 27 -4.5t28 -7.5t28 -7.5t28 -3.5q30 0 57 9t54 36l68 -155q-19 -17 -38 -28t-41 -17.5t-48 -9.5t-59 -3q-29 0 -58.5 5.5t-59.5 12.5t-60 12.5t-60 5.5q-22 0 -58 -6.5t-73 -29.5z" />
    <glyph glyph-name="currency" unicode="&#xa4;" horiz-adv-x="734" 
d="M275 573q21 5 44.5 7.5t49.5 2.5t49.5 -2.5t45.5 -7.5l76 71l146 -147l-48 -48q26 -49 26 -115t-26 -116l48 -47l-150 -151l-74 74q-44 -9 -93 -9q-26 0 -50.5 2.5t-47.5 8.5l-76 -72l-147 147l50 50q-25 48 -25 113q0 63 25 113l-50 50l151 151zM444 334q0 19 -3.5 36
t-12 30t-23 20.5t-35.5 7.5q-77 0 -77 -94q0 -41 16.5 -67t60.5 -26q40 0 57 26t17 67z" />
    <glyph glyph-name="yen" unicode="&#xa5;" 
d="M206 131h-106v79h106v33h-106v79h67l-157 350h276l36 -249h9l36 249h276l-157 -350h67v-79h-107v-33h107v-79h-107v-131h-240v131z" />
    <glyph glyph-name="brokenbar" unicode="&#xa6;" horiz-adv-x="405" 
d="M105 780h195v-443h-195v443zM105 222h195v-442h-195v442z" />
    <glyph glyph-name="section" unicode="&#xa7;" horiz-adv-x="595" 
d="M126 28q36 -51 82.5 -73.5t89.5 -22.5q81 0 81 55q0 28 -25 45.5t-63 32t-81.5 31t-81.5 43.5t-63 68.5t-25 107.5q0 18 4 37.5t13.5 38t24.5 34.5t38 27q-47 44 -47 115q0 30 11 57.5t36.5 48.5t67.5 34t105 13q83 0 144 -25t97 -69l-84 -101q-30 37 -70 53t-83 16
q-33 0 -46 -9t-13 -23q0 -23 24 -36.5t59.5 -25.5t77.5 -26.5t77.5 -40t59.5 -66.5t24 -105q0 -45 -16 -76.5t-57 -58.5q40 -25 54.5 -64.5t14.5 -78.5q0 -38 -16 -71t-47 -57t-77.5 -38t-106.5 -14q-78 0 -146 26.5t-116 86.5zM345 213q19 5 33 17t14 32q0 22 -17.5 38.5
t-42.5 28.5t-52.5 21t-46.5 17q-11 -6 -18 -19.5t-7 -25.5q0 -20 8 -33.5t25 -25.5t43 -23.5t61 -26.5z" />
    <glyph glyph-name="dieresis" unicode="&#xa8;" horiz-adv-x="437" 
d="M250 852q0 35 23 58t59 23t59.5 -23t23.5 -58q0 -36 -23.5 -58.5t-59.5 -22.5t-59 23t-23 58zM23 852q0 35 23 58t59 23t59 -23t23 -58q0 -36 -23 -58.5t-59 -22.5t-59 23t-23 58z" />
    <glyph glyph-name="copyright" unicode="&#xa9;" horiz-adv-x="843" 
d="M420 559q81 0 134.5 -47.5t61.5 -135.5h-147q-3 26 -16 37.5t-33 11.5q-26 0 -40 -20t-14 -54t13.5 -53.5t40.5 -19.5q20 0 33 12t16 36h147q-7 -91 -60.5 -137t-136.5 -46q-95 0 -148.5 55.5t-53.5 152.5q0 45 14 83t40 65.5t63.5 43.5t85.5 16zM163 350q0 -60 18 -109
t51.5 -83.5t81 -53t107.5 -18.5t107.5 18.5t81.5 53t52 83.5t18 109t-18 109t-52 83.5t-81.5 53.5t-107.5 19t-107.5 -19t-81 -53.5t-51.5 -83.5t-18 -109zM46 350q0 85 27 154.5t76 118.5t118 75.5t153 26.5q85 0 154 -26.5t118 -75.5t76 -118.5t27 -154.5q0 -86 -27 -155
t-76.5 -117.5t-118.5 -75t-153 -26.5q-83 0 -152 26.5t-118.5 75.5t-76.5 118t-27 154z" />
    <glyph glyph-name="ordfeminine" unicode="&#xaa;" horiz-adv-x="469" 
d="M34 452q0 39 16.5 62t47 36t73 17t94.5 4q0 18 -11.5 29.5t-43.5 11.5q-27 0 -57.5 -4.5t-62.5 -16.5l-29 86q32 15 76.5 22.5t95.5 7.5q50 0 83.5 -9t54 -27t29 -43.5t8.5 -58.5v-206h-132v61h-5q-18 -33 -52 -51t-81 -18q-56 0 -80 28t-24 69zM198 453q27 0 45.5 18
t20.5 46q-29 0 -47 -4.5t-27.5 -11t-12.5 -14t-3 -14.5q0 -11 6.5 -15.5t17.5 -4.5z" />
    <glyph glyph-name="guillemotleft" unicode="&#xab;" horiz-adv-x="629" 
d="M49 349l122 192h177l-121 -192l121 -195h-177zM281 349l122 192h177l-121 -192l121 -195h-177z" />
    <glyph glyph-name="logicalnot" unicode="&#xac;" horiz-adv-x="794" 
d="M64 371h666v-297h-140v157h-526v140z" />
    <glyph glyph-name="registered" unicode="&#xae;" horiz-adv-x="841" 
d="M595 158h-154l-39 129h-17v-129h-133v387h189q43 0 72 -11t46.5 -29.5t25 -42t7.5 -48.5q0 -35 -12 -63t-44 -50zM385 394h36q17 0 24.5 6t7.5 14q0 9 -7.5 15t-24.5 6h-36v-41zM165 350q0 -60 18 -109t51.5 -83.5t81 -53t107.5 -18.5t107.5 18.5t81.5 53t52 83.5t18 109
t-18 109t-52 83.5t-81.5 53.5t-107.5 19t-107.5 -19t-81 -53.5t-51.5 -83.5t-18 -109zM46 350q0 85 27 154.5t76 118.5t118 75.5t153 26.5q85 0 154 -26.5t118 -75.5t76 -118.5t27 -154.5q0 -86 -27 -155t-76.5 -117.5t-118.5 -75t-153 -26.5q-83 0 -152 26.5t-118.5 75.5
t-76.5 118t-27 154z" />
    <glyph glyph-name="macron" unicode="&#xaf;" horiz-adv-x="455" 
d="M40 866h375v-106h-375v106z" />
    <glyph glyph-name="degree" unicode="&#xb0;" horiz-adv-x="267" 
d="M88 622q0 -14 8.5 -22t22.5 -8q13 0 21.5 8t8.5 22t-8 22t-22 8t-22.5 -8t-8.5 -22zM9 622q0 45 28 76t82 31t81.5 -31t27.5 -76q0 -21 -7 -40.5t-21 -34.5t-34 -24t-47 -9t-47.5 8.5t-34.5 23.5t-21 34.5t-7 41.5z" />
    <glyph glyph-name="plusminus" unicode="&#xb1;" horiz-adv-x="600" 
d="M370 289v-108h-140v108h-170v140h170v109h140v-109h170v-140h-170zM60 0v140h480v-140h-480z" />
    <glyph glyph-name="uni00B2" unicode="&#xb2;" horiz-adv-x="393" 
d="M235 745q0 11 -7.5 18.5t-36.5 7.5q-23 0 -54 -10.5t-55 -31.5l-51 96q32 31 78 45.5t91 14.5q46 0 78 -10t52 -27.5t29.5 -41.5t9.5 -52q0 -52 -19.5 -77.5t-46.5 -39t-55 -22t-45 -25.5h161v-114h-340q0 63 15.5 103t39 65.5t51 39t51 22.5t39 17t15.5 22z" />
    <glyph glyph-name="uni00B3" unicode="&#xb3;" horiz-adv-x="394" 
d="M191 463q-46 0 -90.5 10t-76.5 37l47 103q23 -17 52.5 -26.5t61.5 -9.5q30 0 43 8t13 22t-12 21.5t-44 7.5h-32v80h30q25 0 35 8.5t10 19.5q0 10 -8 18.5t-36 8.5q-23 0 -52 -7t-53 -24l-48 101q29 20 67 32t90 12q44 0 75.5 -9t51 -24.5t28.5 -36.5t9 -46
q0 -26 -8.5 -47.5t-37.5 -38.5q35 -11 49.5 -37t14.5 -56q0 -57 -44 -92t-135 -35z" />
    <glyph glyph-name="acute" unicode="&#xb4;" horiz-adv-x="318" 
d="M116 915h196l-115 -155h-141z" />
    <glyph glyph-name="mu" unicode="&#xb5;" horiz-adv-x="948" 
d="M88 700h326l57 -357h6l57 357h326l48 -700h-273l-9 345h-6l-60 -345h-172l-60 345h-6l-9 -345h-273z" />
    <glyph glyph-name="paragraph" unicode="&#xb6;" horiz-adv-x="706" 
d="M223 189q-89 20 -141 84.5t-52 163.5q0 57 18 105.5t52 83.5t83 54.5t111 19.5h352v-920h-169v731h-84v-731h-170v409z" />
    <glyph glyph-name="periodcentered" unicode="&#xb7;" horiz-adv-x="329" 
d="M60 351q0 45 28.5 72.5t75.5 27.5q46 0 75.5 -27.5t29.5 -72.5t-29.5 -72.5t-75.5 -27.5q-47 0 -75.5 27.5t-28.5 72.5z" />
    <glyph glyph-name="cedilla" unicode="&#xb8;" horiz-adv-x="362" 
d="M112 5h132l-14 -40q39 -8 55 -33t16 -57q0 -44 -33.5 -69.5t-105.5 -25.5q-25 0 -58 4.5t-56 14.5l26 80q15 -5 30 -7.5t27 -2.5q17 0 24 6t7 14q0 11 -15 20t-63 9z" />
    <glyph glyph-name="uni00B9" unicode="&#xb9;" horiz-adv-x="297" 
d="M120 734l-37 -26l-59 94l103 72h126v-398h-133v258z" />
    <glyph glyph-name="ordmasculine" unicode="&#xba;" horiz-adv-x="415" 
d="M22 530q0 85 49.5 130.5t135.5 45.5q89 0 138 -45.5t49 -130.5t-49.5 -130t-137.5 -45t-136.5 45t-48.5 130zM164 530q0 -33 11 -53.5t32 -20.5q25 0 35 20t10 54q0 32 -10 53.5t-35 21.5q-23 0 -33 -21.5t-10 -53.5z" />
    <glyph glyph-name="guillemotright" unicode="&#xbb;" horiz-adv-x="629" 
d="M226 154h-177l121 195l-121 192h177l122 -192zM458 154h-177l121 195l-121 192h177l122 -192z" />
    <glyph glyph-name="onequarter" unicode="&#xbc;" horiz-adv-x="914" 
d="M609 672h134l-467 -672h-132zM676 84h-179v93l171 221h141v-218h67v-96h-67v-84h-133v84zM612 180h64v81zM144 532l-37 -26l-59 94l103 72h126v-398h-133v258z" />
    <glyph glyph-name="onehalf" unicode="&#xbd;" horiz-adv-x="947" 
d="M775 269q0 11 -7.5 18.5t-36.5 7.5q-23 0 -54 -10.5t-56 -31.5l-51 96q32 31 78 45.5t91 14.5q46 0 78 -10t52 -27.5t29.5 -41.5t9.5 -52q0 -52 -19.5 -77.5t-46.5 -39t-55 -22t-45 -25.5h161v-114h-339q0 63 15.5 103t39 65.5t51 39t51 22.5t39 17t15.5 22zM609 672h134
l-467 -672h-132zM144 532l-37 -26l-59 94l103 72h126v-398h-133v258z" />
    <glyph glyph-name="threequarters" unicode="&#xbe;" horiz-adv-x="981" 
d="M215 260q-46 0 -90.5 10.5t-76.5 36.5l47 104q23 -17 52.5 -27t61.5 -10q30 0 43 8t13 22t-12 22t-44 8h-32v80h30q25 0 35 8t10 19t-8 19t-36 8q-23 0 -52 -6.5t-53 -23.5l-48 100q29 20 67 32.5t90 12.5q44 0 75.5 -9t51 -24.5t28.5 -37t9 -46.5t-8.5 -46.5
t-37.5 -38.5q35 -11 49.5 -37.5t14.5 -55.5q0 -57 -44 -92.5t-135 -35.5zM685 672h135l-467 -672h-132zM743 84h-179v93l171 221h141v-218h67v-96h-67v-84h-133v84zM679 180h64v81z" />
    <glyph glyph-name="questiondown" unicode="&#xbf;" horiz-adv-x="673" 
d="M444 619q0 -45 -28.5 -72.5t-75.5 -27.5q-46 0 -75.5 27.5t-29.5 72.5t29.5 72.5t75.5 27.5q47 0 75.5 -27.5t28.5 -72.5zM330 -17q-76 0 -129 16t-86.5 44t-49 66.5t-15.5 83.5q0 44 12.5 74t32 52t43 39.5t45.5 36.5t39.5 42.5t25.5 57.5h187q0 -55 -12 -90.5
t-30 -59.5t-38.5 -39t-38.5 -29t-30 -30t-12 -41q0 -20 16.5 -32t45.5 -12q18 0 40.5 2.5t49.5 9.5t57.5 20t64.5 35l75 -163q-64 -43 -135 -63t-158 -20z" />
    <glyph glyph-name="Agrave" unicode="&#xc0;" horiz-adv-x="827" 
d="M491 131h-155l-28 -131h-298l216 700h375l216 -700h-299zM369 282h91l-41 199h-6zM475 760h-141l-115 155h196z" />
    <glyph glyph-name="Aacute" unicode="&#xc1;" horiz-adv-x="827" 
d="M491 131h-155l-28 -131h-298l216 700h375l216 -700h-299zM369 282h91l-41 199h-6zM401 915h196l-115 -155h-141z" />
    <glyph glyph-name="Acircumflex" unicode="&#xc2;" horiz-adv-x="827" 
d="M491 131h-155l-28 -131h-298l216 700h375l216 -700h-299zM369 282h91l-41 199h-6zM304 915h218l82 -155h-153l-38 73l-38 -73h-153z" />
    <glyph glyph-name="Atilde" unicode="&#xc3;" horiz-adv-x="827" 
d="M491 131h-155l-28 -131h-298l216 700h375l216 -700h-299zM369 282h91l-41 199h-6zM496 877q18 0 38 7.5t29 23.5l37 -101q-13 -23 -40.5 -35.5t-62.5 -12.5q-22 0 -43 6t-41 12.5t-39.5 12.5t-37.5 6q-17 0 -35.5 -7.5t-31.5 -24.5l-40 95q14 26 43.5 40.5t60.5 14.5
q25 0 46 -6t40.5 -12.5t38 -12.5t38.5 -6z" />
    <glyph glyph-name="Adieresis" unicode="&#xc4;" horiz-adv-x="827" 
d="M491 131h-155l-28 -131h-298l216 700h375l216 -700h-299zM369 282h91l-41 199h-6zM444 832q0 35 23 58t59 23t59.5 -23t23.5 -58q0 -36 -23.5 -58.5t-59.5 -22.5t-59 23t-23 58zM217 832q0 35 23 58t59 23t59 -23t23 -58q0 -36 -23 -58.5t-59 -22.5t-59 23t-23 58z" />
    <glyph glyph-name="Aring" unicode="&#xc5;" horiz-adv-x="827" 
d="M282 803q0 27 8.5 50t25.5 40.5t41.5 27.5t56.5 10t56.5 -10t41 -27.5t25 -40.5t8.5 -50q0 -29 -11 -55t-34 -44v-4h101l216 -700h-299l-27 131h-155l-28 -131h-298l216 700h100v4q-22 18 -33 43.5t-11 55.5zM369 282h91l-41 199h-6zM377 803q0 -17 10 -26.5t27 -9.5
q15 0 25.5 9.5t10.5 26.5t-9.5 26.5t-26.5 9.5t-27 -9.5t-10 -26.5z" />
    <glyph glyph-name="AE" unicode="&#xc6;" horiz-adv-x="1216" 
d="M362 135l-59 -135h-303l336 700h821v-184h-336v-79h270v-169h-270v-79h350v-189h-640v135h-169zM428 286h103v225h-6z" />
    <glyph glyph-name="Ccedilla" unicode="&#xc7;" horiz-adv-x="757" 
d="M721 72q-34 -24 -65 -40.5t-63 -27t-66.5 -15.5t-75.5 -6l-5 -18q39 -8 55 -33t16 -57q0 -44 -33.5 -69.5t-105.5 -25.5q-25 0 -58 4.5t-56 14.5l26 80q15 -5 30 -7.5t27 -2.5q17 0 24 6t7 14q0 11 -15 20t-63 9l22 73q-65 12 -117 40.5t-89 73t-56.5 105.5t-19.5 139
q0 91 27.5 160.5t77.5 115.5t121 69.5t157 23.5q41 0 76 -3.5t68 -11.5t64.5 -20.5t66.5 -30.5l-72 -170q-44 27 -79 38t-68 11q-26 0 -51 -9t-44.5 -30.5t-31.5 -56t-12 -85.5t11 -85.5t30 -56t44 -30.5t54 -9q40 0 77 16t71 51z" />
    <glyph glyph-name="Egrave" unicode="&#xc8;" horiz-adv-x="735" 
d="M50 700h626v-184h-336v-79h270v-169h-270v-79h350v-189h-640v700zM444 760h-141l-115 155h196z" />
    <glyph glyph-name="Eacute" unicode="&#xc9;" horiz-adv-x="735" 
d="M50 700h626v-184h-336v-79h270v-169h-270v-79h350v-189h-640v700zM354 915h196l-115 -155h-141z" />
    <glyph glyph-name="Ecircumflex" unicode="&#xca;" horiz-adv-x="735" 
d="M50 700h626v-184h-336v-79h270v-169h-270v-79h350v-189h-640v700zM256 915h218l82 -155h-153l-38 73l-38 -73h-153z" />
    <glyph glyph-name="Edieresis" unicode="&#xcb;" horiz-adv-x="735" 
d="M50 700h626v-184h-336v-79h270v-169h-270v-79h350v-189h-640v700zM390 832q0 35 23 58t59 23t59.5 -23t23.5 -58q0 -36 -23.5 -58.5t-59.5 -22.5t-59 23t-23 58zM163 832q0 35 23 58t59 23t59 -23t23 -58q0 -36 -23 -58.5t-59 -22.5t-59 23t-23 58z" />
    <glyph glyph-name="Igrave" unicode="&#xcc;" horiz-adv-x="400" 
d="M345 0h-290v700h290v-700zM285 760h-141l-115 155h196z" />
    <glyph glyph-name="Iacute" unicode="&#xcd;" horiz-adv-x="400" 
d="M55 700h290v-700h-290v700zM175 915h196l-115 -155h-141z" />
    <glyph glyph-name="Icircumflex" unicode="&#xce;" horiz-adv-x="400" 
d="M55 700h290v-700h-290v700zM90 915h218l72 -155h-153l-28 73l-28 -73h-153z" />
    <glyph glyph-name="Idieresis" unicode="&#xcf;" horiz-adv-x="400" 
d="M55 700h290v-700h-290v700zM213 852q0 35 23 58t59 23t59.5 -23t23.5 -58q0 -36 -23.5 -58.5t-59.5 -22.5t-59 23t-23 58zM20 852q0 35 23 58t59 23t59 -23t23 -58q0 -36 -23 -58.5t-59 -22.5t-59 23t-23 58z" />
    <glyph glyph-name="Eth" unicode="&#xd0;" horiz-adv-x="888" 
d="M120 0v290h-70v120h70v290h330q207 0 300.5 -86.5t93.5 -264.5t-93.5 -263.5t-300.5 -85.5h-330zM410 410h67v-120h-67v-122h31q56 0 81 40.5t25 140.5t-25.5 141t-80.5 41h-31v-121z" />
    <glyph glyph-name="Ntilde" unicode="&#xd1;" horiz-adv-x="795" 
d="M479 852q18 0 38 7.5t29 23.5l37 -101q-13 -23 -40.5 -35.5t-62.5 -12.5q-22 0 -43 6t-41 12.5t-39.5 12.5t-37.5 6q-17 0 -35.5 -7.5t-31.5 -24.5l-40 95q14 26 43.5 40.5t60.5 14.5q25 0 46 -6t40.5 -12.5t38 -12.5t38.5 -6zM50 700h284l140 -332h5v332h266v-700h-284
l-140 329h-5v-329h-266v700z" />
    <glyph glyph-name="Ograve" unicode="&#xd2;" horiz-adv-x="862" 
d="M430 -18q-94 0 -166.5 26.5t-122 74.5t-75.5 116t-26 151q0 82 26 150t75.5 116t122.5 74.5t166 26.5t166 -26.5t123 -74.5t76.5 -116t26.5 -150q0 -83 -26 -151t-76 -116t-123 -74.5t-167 -26.5zM430 169q45 0 68.5 47.5t23.5 133.5q0 85 -23.5 133t-68.5 48
q-44 0 -67 -48t-23 -133q0 -86 23.5 -133.5t66.5 -47.5zM485 770h-141l-115 155h196z" />
    <glyph glyph-name="Oacute" unicode="&#xd3;" horiz-adv-x="862" 
d="M430 -18q-94 0 -166.5 26.5t-122 74.5t-75.5 116t-26 151q0 82 26 150t75.5 116t122.5 74.5t166 26.5t166 -26.5t123 -74.5t76.5 -116t26.5 -150q0 -83 -26 -151t-76 -116t-123 -74.5t-167 -26.5zM430 169q45 0 68.5 47.5t23.5 133.5q0 85 -23.5 133t-68.5 48
q-44 0 -67 -48t-23 -133q0 -86 23.5 -133.5t66.5 -47.5zM413 925h196l-115 -155h-141z" />
    <glyph glyph-name="Ocircumflex" unicode="&#xd4;" horiz-adv-x="862" 
d="M322 925h218l82 -155h-153l-38 73l-38 -73h-153zM430 -18q-94 0 -166.5 26.5t-122 74.5t-75.5 116t-26 151q0 82 26 150t75.5 116t122.5 74.5t166 26.5t166 -26.5t123 -74.5t76.5 -116t26.5 -150q0 -83 -26 -151t-76 -116t-123 -74.5t-167 -26.5zM430 169q45 0 68.5 47.5
t23.5 133.5q0 85 -23.5 133t-68.5 48q-44 0 -67 -48t-23 -133q0 -86 23.5 -133.5t66.5 -47.5z" />
    <glyph glyph-name="Otilde" unicode="&#xd5;" horiz-adv-x="862" 
d="M513 882q18 0 38 7.5t29 23.5l37 -101q-13 -23 -40.5 -35.5t-62.5 -12.5q-22 0 -43 6t-41 12.5t-39.5 12.5t-37.5 6q-17 0 -35.5 -7.5t-31.5 -24.5l-40 95q14 26 43.5 40.5t60.5 14.5q25 0 46 -6t40.5 -12.5t38 -12.5t38.5 -6zM430 -18q-94 0 -166.5 26.5t-122 74.5
t-75.5 116t-26 151q0 82 26 150t75.5 116t122.5 74.5t166 26.5t166 -26.5t123 -74.5t76.5 -116t26.5 -150q0 -83 -26 -151t-76 -116t-123 -74.5t-167 -26.5zM430 169q45 0 68.5 47.5t23.5 133.5q0 85 -23.5 133t-68.5 48q-44 0 -67 -48t-23 -133q0 -86 23.5 -133.5
t66.5 -47.5z" />
    <glyph glyph-name="Odieresis" unicode="&#xd6;" horiz-adv-x="862" 
d="M462 852q0 35 23 58t59 23t59.5 -23t23.5 -58q0 -36 -23.5 -58.5t-59.5 -22.5t-59 23t-23 58zM235 852q0 35 23 58t59 23t59 -23t23 -58q0 -36 -23 -58.5t-59 -22.5t-59 23t-23 58zM430 -18q-94 0 -166.5 26.5t-122 74.5t-75.5 116t-26 151q0 82 26 150t75.5 116
t122.5 74.5t166 26.5t166 -26.5t123 -74.5t76.5 -116t26.5 -150q0 -83 -26 -151t-76 -116t-123 -74.5t-167 -26.5zM430 169q45 0 68.5 47.5t23.5 133.5q0 85 -23.5 133t-68.5 48q-44 0 -67 -48t-23 -133q0 -86 23.5 -133.5t66.5 -47.5z" />
    <glyph glyph-name="multiply" unicode="&#xd7;" horiz-adv-x="524" 
d="M262 241l-113 -113l-99 99l113 113l-113 113l99 99l113 -113l113 113l99 -99l-113 -113l113 -113l-99 -99z" />
    <glyph glyph-name="Oslash" unicode="&#xd8;" horiz-adv-x="862" 
d="M117 109q-77 95 -77 241q0 82 26 150t75.5 116t122.5 74.5t166 26.5q72 0 131.5 -16t107.5 -46l86 85l71 -68l-83 -82q38 -47 58.5 -107.5t20.5 -132.5q0 -83 -26 -151t-76 -116t-123 -74.5t-167 -26.5q-74 0 -134 16t-107 46l-82 -81l-71 66zM430 169q45 0 70.5 45.5
t25.5 131.5v31l-162 -161q20 -47 66 -47zM336 324l160 161q-19 46 -66 46q-45 0 -70 -46t-25 -131z" />
    <glyph glyph-name="Ugrave" unicode="&#xd9;" horiz-adv-x="772" 
d="M50 700h290v-437q0 -51 11.5 -72.5t34.5 -21.5q24 0 35 21t11 73v437h290v-443q0 -70 -24 -122t-68.5 -86t-106.5 -50.5t-137 -16.5t-137 17t-106.5 51t-68.5 86t-24 121v443zM456 760h-141l-115 155h196z" />
    <glyph glyph-name="Uacute" unicode="&#xda;" horiz-adv-x="772" 
d="M50 700h290v-437q0 -51 11.5 -72.5t34.5 -21.5q24 0 35 21t11 73v437h290v-443q0 -70 -24 -122t-68.5 -86t-106.5 -50.5t-137 -16.5t-137 17t-106.5 51t-68.5 86t-24 121v443zM376 915h196l-115 -155h-141z" />
    <glyph glyph-name="Ucircumflex" unicode="&#xdb;" horiz-adv-x="772" 
d="M277 915h218l82 -155h-153l-38 73l-38 -73h-153zM50 700h290v-437q0 -51 11.5 -72.5t34.5 -21.5q24 0 35 21t11 73v437h290v-443q0 -70 -24 -122t-68.5 -86t-106.5 -50.5t-137 -16.5t-137 17t-106.5 51t-68.5 86t-24 121v443z" />
    <glyph glyph-name="Udieresis" unicode="&#xdc;" horiz-adv-x="772" 
d="M417 837q0 35 23 58t59 23t59.5 -23t23.5 -58q0 -36 -23.5 -58.5t-59.5 -22.5t-59 23t-23 58zM190 837q0 35 23 58t59 23t59 -23t23 -58q0 -36 -23 -58.5t-59 -22.5t-59 23t-23 58zM50 700h290v-437q0 -51 11.5 -72.5t34.5 -21.5q24 0 35 21t11 73v437h290v-443
q0 -70 -24 -122t-68.5 -86t-106.5 -50.5t-137 -16.5t-137 17t-106.5 51t-68.5 86t-24 121v443z" />
    <glyph glyph-name="Yacute" unicode="&#xdd;" horiz-adv-x="837" 
d="M273 265l-263 435h317l92 -224h7l83 224h318l-264 -435v-265h-290v265zM412 915h196l-115 -155h-141z" />
    <glyph glyph-name="Thorn" unicode="&#xde;" horiz-adv-x="768" 
d="M50 700h290v-96h153q65 0 110.5 -18t74.5 -50t42 -76t13 -95q0 -110 -59 -174.5t-181 -64.5h-153v-126h-290v700zM366 297q44 0 59.5 19.5t15.5 48.5q0 13 -2.5 25.5t-10.5 22t-23 15t-39 5.5h-26v-136h26z" />
    <glyph glyph-name="germandbls" unicode="&#xdf;" horiz-adv-x="863" 
d="M50 407q0 70 19.5 127.5t62.5 98.5t112 63t167 22q61 0 109.5 -9.5t87.5 -27t70 -43.5t57 -59l-111 -138q43 -4 80 -19.5t63 -42t41 -65t15 -88.5t-12 -94.5t-41 -77.5t-77.5 -52.5t-122.5 -19.5q-58 0 -110.5 11.5t-94.5 37.5l38 158q18 -12 40.5 -19.5t40.5 -7.5
q26 0 43 14.5t17 53.5q0 26 -10.5 47.5t-33.5 21.5q-8 0 -18 -4.5t-21 -18.5l-101 101l111 138q-16 16 -49 16q-35 0 -57 -27t-22 -97v-407h-293v407z" />
    <glyph glyph-name="agrave" unicode="&#xe0;" horiz-adv-x="827" 
d="M491 131h-155l-28 -131h-298l216 700h375l216 -700h-299zM369 282h91l-41 199h-6zM475 760h-141l-115 155h196z" />
    <glyph glyph-name="aacute" unicode="&#xe1;" horiz-adv-x="827" 
d="M491 131h-155l-28 -131h-298l216 700h375l216 -700h-299zM369 282h91l-41 199h-6zM401 915h196l-115 -155h-141z" />
    <glyph glyph-name="acircumflex" unicode="&#xe2;" horiz-adv-x="827" 
d="M491 131h-155l-28 -131h-298l216 700h375l216 -700h-299zM369 282h91l-41 199h-6zM304 915h218l82 -155h-153l-38 73l-38 -73h-153z" />
    <glyph glyph-name="atilde" unicode="&#xe3;" horiz-adv-x="827" 
d="M491 131h-155l-28 -131h-298l216 700h375l216 -700h-299zM369 282h91l-41 199h-6zM495 877q18 0 38 7.5t29 23.5l37 -101q-13 -23 -40.5 -35.5t-62.5 -12.5q-22 0 -43 6t-41 12.5t-39.5 12.5t-37.5 6q-17 0 -35.5 -7.5t-31.5 -24.5l-40 95q14 26 43.5 40.5t60.5 14.5
q25 0 46 -6t40.5 -12.5t38 -12.5t38.5 -6z" />
    <glyph glyph-name="adieresis" unicode="&#xe4;" horiz-adv-x="827" 
d="M491 131h-155l-28 -131h-298l216 700h375l216 -700h-299zM369 282h91l-41 199h-6zM444 832q0 35 23 58t59 23t59.5 -23t23.5 -58q0 -36 -23.5 -58.5t-59.5 -22.5t-59 23t-23 58zM217 832q0 35 23 58t59 23t59 -23t23 -58q0 -36 -23 -58.5t-59 -22.5t-59 23t-23 58z" />
    <glyph glyph-name="aring" unicode="&#xe5;" horiz-adv-x="827" 
d="M282 803q0 27 8.5 50t25.5 40.5t41.5 27.5t56.5 10t56.5 -10t41 -27.5t25 -40.5t8.5 -50q0 -29 -11 -55t-34 -44v-4h101l216 -700h-299l-27 131h-155l-28 -131h-298l216 700h100v4q-22 18 -33 43.5t-11 55.5zM369 282h91l-41 199h-6zM377 803q0 -17 10 -26.5t27 -9.5
q15 0 25.5 9.5t10.5 26.5t-9.5 26.5t-26.5 9.5t-27 -9.5t-10 -26.5z" />
    <glyph glyph-name="ae" unicode="&#xe6;" horiz-adv-x="1216" 
d="M362 135l-59 -135h-303l336 700h821v-184h-336v-79h270v-169h-270v-79h350v-189h-640v135h-169zM428 286h103v225h-6z" />
    <glyph glyph-name="ccedilla" unicode="&#xe7;" horiz-adv-x="757" 
d="M721 72q-34 -24 -65 -40.5t-63 -27t-66.5 -15.5t-75.5 -6l-5 -18q39 -8 55 -33t16 -57q0 -44 -33.5 -69.5t-105.5 -25.5q-25 0 -58 4.5t-56 14.5l26 80q15 -5 30 -7.5t27 -2.5q17 0 24 6t7 14q0 11 -15 20t-63 9l22 73q-65 12 -117 40.5t-89 73t-56.5 105.5t-19.5 139
q0 91 27.5 160.5t77.5 115.5t121 69.5t157 23.5q41 0 76 -3.5t68 -11.5t64.5 -20.5t66.5 -30.5l-72 -170q-44 27 -79 38t-68 11q-26 0 -51 -9t-44.5 -30.5t-31.5 -56t-12 -85.5t11 -85.5t30 -56t44 -30.5t54 -9q40 0 77 16t71 51z" />
    <glyph glyph-name="egrave" unicode="&#xe8;" horiz-adv-x="735" 
d="M50 700h626v-184h-336v-79h270v-169h-270v-79h350v-189h-640v700zM444 760h-141l-115 155h196z" />
    <glyph glyph-name="eacute" unicode="&#xe9;" horiz-adv-x="735" 
d="M50 700h626v-184h-336v-79h270v-169h-270v-79h350v-189h-640v700zM354 915h196l-115 -155h-141z" />
    <glyph glyph-name="ecircumflex" unicode="&#xea;" horiz-adv-x="735" 
d="M50 700h626v-184h-336v-79h270v-169h-270v-79h350v-189h-640v700zM257 915h218l82 -155h-153l-38 73l-38 -73h-153z" />
    <glyph glyph-name="edieresis" unicode="&#xeb;" horiz-adv-x="735" 
d="M50 700h626v-184h-336v-79h270v-169h-270v-79h350v-189h-640v700zM391 832q0 35 23 58t59 23t59.5 -23t23.5 -58q0 -36 -23.5 -58.5t-59.5 -22.5t-59 23t-23 58zM164 832q0 35 23 58t59 23t59 -23t23 -58q0 -36 -23 -58.5t-59 -22.5t-59 23t-23 58z" />
    <glyph glyph-name="igrave" unicode="&#xec;" horiz-adv-x="400" 
d="M345 0h-290v700h290v-700zM285 760h-141l-115 155h196z" />
    <glyph glyph-name="iacute" unicode="&#xed;" horiz-adv-x="400" 
d="M345 0h-290v700h290v-700zM175 915h196l-115 -155h-141z" />
    <glyph glyph-name="icircumflex" unicode="&#xee;" horiz-adv-x="400" 
d="M345 0h-290v700h290v-700zM90 915h218l72 -155h-153l-28 73l-28 -73h-153z" />
    <glyph glyph-name="idieresis" unicode="&#xef;" horiz-adv-x="400" 
d="M345 0h-290v700h290v-700zM213 852q0 35 23 58t59 23t59.5 -23t23.5 -58q0 -36 -23.5 -58.5t-59.5 -22.5t-59 23t-23 58zM20 852q0 35 23 58t59 23t59 -23t23 -58q0 -36 -23 -58.5t-59 -22.5t-59 23t-23 58z" />
    <glyph glyph-name="eth" unicode="&#xf0;" horiz-adv-x="888" 
d="M120 0v290h-70v120h70v290h330q207 0 300.5 -86.5t93.5 -264.5t-93.5 -263.5t-300.5 -85.5h-330zM410 410h67v-120h-67v-122h31q56 0 81 40.5t25 140.5t-25.5 141t-80.5 41h-31v-121z" />
    <glyph glyph-name="ntilde" unicode="&#xf1;" horiz-adv-x="785" 
d="M50 700h284l130 -332h5v332h266v-700h-284l-130 329h-5v-329h-266v700zM474 852q18 0 38 7.5t29 23.5l37 -101q-13 -23 -40.5 -35.5t-62.5 -12.5q-22 0 -43 6t-41 12.5t-39.5 12.5t-37.5 6q-17 0 -35.5 -7.5t-31.5 -24.5l-40 95q14 26 43.5 40.5t60.5 14.5q25 0 46 -6
t40.5 -12.5t38 -12.5t38.5 -6z" />
    <glyph glyph-name="ograve" unicode="&#xf2;" horiz-adv-x="862" 
d="M430 -18q-94 0 -166.5 26.5t-122 74.5t-75.5 116t-26 151q0 82 26 150t75.5 116t122.5 74.5t166 26.5t166 -26.5t123 -74.5t76.5 -116t26.5 -150q0 -83 -26 -151t-76 -116t-123 -74.5t-167 -26.5zM430 169q45 0 68.5 47.5t23.5 133.5q0 85 -23.5 133t-68.5 48
q-44 0 -67 -48t-23 -133q0 -86 23.5 -133.5t66.5 -47.5zM485 770h-141l-115 155h196z" />
    <glyph glyph-name="oacute" unicode="&#xf3;" horiz-adv-x="862" 
d="M430 -18q-94 0 -166.5 26.5t-122 74.5t-75.5 116t-26 151q0 82 26 150t75.5 116t122.5 74.5t166 26.5t166 -26.5t123 -74.5t76.5 -116t26.5 -150q0 -83 -26 -151t-76 -116t-123 -74.5t-167 -26.5zM430 169q45 0 68.5 47.5t23.5 133.5q0 85 -23.5 133t-68.5 48
q-44 0 -67 -48t-23 -133q0 -86 23.5 -133.5t66.5 -47.5zM413 925h196l-115 -155h-141z" />
    <glyph glyph-name="ocircumflex" unicode="&#xf4;" horiz-adv-x="862" 
d="M430 -18q-94 0 -166.5 26.5t-122 74.5t-75.5 116t-26 151q0 82 26 150t75.5 116t122.5 74.5t166 26.5t166 -26.5t123 -74.5t76.5 -116t26.5 -150q0 -83 -26 -151t-76 -116t-123 -74.5t-167 -26.5zM430 169q45 0 68.5 47.5t23.5 133.5q0 85 -23.5 133t-68.5 48
q-44 0 -67 -48t-23 -133q0 -86 23.5 -133.5t66.5 -47.5zM322 925h218l82 -155h-153l-38 73l-38 -73h-153z" />
    <glyph glyph-name="otilde" unicode="&#xf5;" horiz-adv-x="862" 
d="M430 -18q-94 0 -166.5 26.5t-122 74.5t-75.5 116t-26 151q0 82 26 150t75.5 116t122.5 74.5t166 26.5t166 -26.5t123 -74.5t76.5 -116t26.5 -150q0 -83 -26 -151t-76 -116t-123 -74.5t-167 -26.5zM430 169q45 0 68.5 47.5t23.5 133.5q0 85 -23.5 133t-68.5 48
q-44 0 -67 -48t-23 -133q0 -86 23.5 -133.5t66.5 -47.5zM513 882q18 0 38 7.5t29 23.5l37 -101q-13 -23 -40.5 -35.5t-62.5 -12.5q-22 0 -43 6t-41 12.5t-39.5 12.5t-37.5 6q-17 0 -35.5 -7.5t-31.5 -24.5l-40 95q14 26 43.5 40.5t60.5 14.5q25 0 46 -6t40.5 -12.5t38 -12.5
t38.5 -6z" />
    <glyph glyph-name="odieresis" unicode="&#xf6;" horiz-adv-x="862" 
d="M430 -18q-94 0 -166.5 26.5t-122 74.5t-75.5 116t-26 151q0 82 26 150t75.5 116t122.5 74.5t166 26.5t166 -26.5t123 -74.5t76.5 -116t26.5 -150q0 -83 -26 -151t-76 -116t-123 -74.5t-167 -26.5zM430 169q45 0 68.5 47.5t23.5 133.5q0 85 -23.5 133t-68.5 48
q-44 0 -67 -48t-23 -133q0 -86 23.5 -133.5t66.5 -47.5zM462 852q0 35 23 58t59 23t59.5 -23t23.5 -58q0 -36 -23.5 -58.5t-59.5 -22.5t-59 23t-23 58zM235 852q0 35 23 58t59 23t59 -23t23 -58q0 -36 -23 -58.5t-59 -22.5t-59 23t-23 58z" />
    <glyph glyph-name="divide" unicode="&#xf7;" horiz-adv-x="592" 
d="M66 410h460v-140h-460v140zM215 160q0 36 23.5 58t56.5 22t57 -22t24 -58t-24 -57.5t-57 -21.5t-56.5 21.5t-23.5 57.5zM215 519q0 36 23.5 58t56.5 22t57 -22t24 -58t-24 -57.5t-57 -21.5t-56.5 21.5t-23.5 57.5z" />
    <glyph glyph-name="oslash" unicode="&#xf8;" horiz-adv-x="862" 
d="M117 109q-77 95 -77 241q0 82 26 150t75.5 116t122.5 74.5t166 26.5q72 0 131.5 -16t107.5 -46l86 85l71 -68l-83 -82q38 -47 58.5 -107.5t20.5 -132.5q0 -83 -26 -151t-76 -116t-123 -74.5t-167 -26.5q-74 0 -134 16t-107 46l-82 -81l-71 66zM430 169q45 0 70.5 45.5
t25.5 131.5v31l-162 -161q20 -47 66 -47zM336 324l160 161q-19 46 -66 46q-45 0 -70 -46t-25 -131z" />
    <glyph glyph-name="ugrave" unicode="&#xf9;" horiz-adv-x="772" 
d="M50 700h290v-437q0 -51 11.5 -72.5t34.5 -21.5q24 0 35 21t11 73v437h290v-443q0 -70 -24 -122t-68.5 -86t-106.5 -50.5t-137 -16.5t-137 17t-106.5 51t-68.5 86t-24 121v443zM458 760h-141l-115 155h196z" />
    <glyph glyph-name="uacute" unicode="&#xfa;" horiz-adv-x="772" 
d="M50 700h290v-437q0 -51 11.5 -72.5t34.5 -21.5q24 0 35 21t11 73v437h290v-443q0 -70 -24 -122t-68.5 -86t-106.5 -50.5t-137 -16.5t-137 17t-106.5 51t-68.5 86t-24 121v443zM378 915h196l-115 -155h-141z" />
    <glyph glyph-name="ucircumflex" unicode="&#xfb;" horiz-adv-x="772" 
d="M50 700h290v-437q0 -51 11.5 -72.5t34.5 -21.5q24 0 35 21t11 73v437h290v-443q0 -70 -24 -122t-68.5 -86t-106.5 -50.5t-137 -16.5t-137 17t-106.5 51t-68.5 86t-24 121v443zM277 915h218l82 -155h-153l-38 73l-38 -73h-153z" />
    <glyph glyph-name="udieresis" unicode="&#xfc;" horiz-adv-x="772" 
d="M50 700h290v-437q0 -51 11.5 -72.5t34.5 -21.5q24 0 35 21t11 73v437h290v-443q0 -70 -24 -122t-68.5 -86t-106.5 -50.5t-137 -16.5t-137 17t-106.5 51t-68.5 86t-24 121v443zM417 837q0 35 23 58t59 23t59.5 -23t23.5 -58q0 -36 -23.5 -58.5t-59.5 -22.5t-59 23t-23 58z
M190 837q0 35 23 58t59 23t59 -23t23 -58q0 -36 -23 -58.5t-59 -22.5t-59 23t-23 58z" />
    <glyph glyph-name="yacute" unicode="&#xfd;" horiz-adv-x="837" 
d="M273 265l-263 435h317l92 -224h7l83 224h318l-264 -435v-265h-290v265zM412 915h196l-115 -155h-141z" />
    <glyph glyph-name="thorn" unicode="&#xfe;" horiz-adv-x="768" 
d="M50 700h290v-96h153q65 0 110.5 -18t74.5 -50t42 -76t13 -95q0 -110 -59 -174.5t-181 -64.5h-153v-126h-290v700zM366 297q44 0 59.5 19.5t15.5 48.5q0 13 -2.5 25.5t-10.5 22t-23 15t-39 5.5h-26v-136h26z" />
    <glyph glyph-name="ydieresis" unicode="&#xff;" horiz-adv-x="837" 
d="M273 265l-263 435h317l92 -224h7l83 224h318l-264 -435v-265h-290v265zM453 837q0 35 23 58t59 23t59.5 -23t23.5 -58q0 -36 -23.5 -58.5t-59.5 -22.5t-59 23t-23 58zM226 837q0 35 23 58t59 23t59 -23t23 -58q0 -36 -23 -58.5t-59 -22.5t-59 23t-23 58z" />
    <glyph glyph-name="dotlessi" unicode="&#x131;" horiz-adv-x="400" 
d="M55 700h290v-700h-290v700z" />
    <glyph glyph-name="OE" unicode="&#x152;" horiz-adv-x="1319" 
d="M634 45h-6q-36 -34 -98 -48.5t-131 -14.5q-85 0 -151.5 28t-112.5 77t-70.5 116.5t-24.5 146.5t24.5 146t70.5 116.5t112.5 77.5t151.5 28q72 0 132 -15.5t97 -46.5h6v44h626v-184h-336v-79h270v-169h-270v-79h350v-189h-640v45zM490 169q36 0 64 13.5t47.5 37.5t29.5 57
t10 73q0 39 -10 72t-29 57.5t-47.5 38t-64.5 13.5t-64 -13.5t-47 -37.5t-29 -57.5t-10 -72.5t11 -72.5t30.5 -57.5t47.5 -37.5t61 -13.5z" />
    <glyph glyph-name="oe" unicode="&#x153;" horiz-adv-x="1319" 
d="M634 45h-6q-36 -34 -98 -48.5t-131 -14.5q-85 0 -151.5 28t-112.5 77t-70.5 116.5t-24.5 146.5t24.5 146t70.5 116.5t112.5 77.5t151.5 28q72 0 132 -15.5t97 -46.5h6v44h626v-184h-336v-79h270v-169h-270v-79h350v-189h-640v45zM490 169q36 0 64 13.5t47.5 37.5t29.5 57
t10 73q0 39 -10 72t-29 57.5t-47.5 38t-64.5 13.5t-64 -13.5t-47 -37.5t-29 -57.5t-10 -72.5t11 -72.5t30.5 -57.5t47.5 -37.5t61 -13.5z" />
    <glyph glyph-name="Scaron" unicode="&#x160;" horiz-adv-x="712" 
d="M169 925h153l38 -73l38 73h153l-82 -155h-218zM382 -18q-100 0 -188.5 20.5t-162.5 67.5l84 169q55 -37 109 -56t103 -19q32 0 47.5 8t15.5 28q0 23 -25 33t-62 18.5t-80.5 19.5t-80.5 36t-62 68t-25 115q0 43 16 84t50.5 72.5t88 51t128.5 19.5q91 0 166 -15.5
t142 -41.5l-54 -168q-31 12 -57 21t-50 15.5t-46.5 9.5t-46.5 3q-20 0 -29.5 -9t-9.5 -18q0 -24 24.5 -35.5t62 -21t80.5 -21t80.5 -36t62 -66.5t24.5 -112q0 -50 -18 -93.5t-55.5 -76t-95 -51.5t-136.5 -19z" />
    <glyph glyph-name="scaron" unicode="&#x161;" horiz-adv-x="712" 
d="M169 925h153l38 -73l38 73h153l-82 -155h-218zM382 -18q-100 0 -188.5 20.5t-162.5 67.5l84 169q55 -37 109 -56t103 -19q32 0 47.5 8t15.5 28q0 23 -25 33t-62 18.5t-80.5 19.5t-80.5 36t-62 68t-25 115q0 43 16 84t50.5 72.5t88 51t128.5 19.5q91 0 166 -15.5
t142 -41.5l-54 -168q-31 12 -57 21t-50 15.5t-46.5 9.5t-46.5 3q-20 0 -29.5 -9t-9.5 -18q0 -24 24.5 -35.5t62 -21t80.5 -21t80.5 -36t62 -66.5t24.5 -112q0 -50 -18 -93.5t-55.5 -76t-95 -51.5t-136.5 -19z" />
    <glyph glyph-name="Ydieresis" unicode="&#x178;" horiz-adv-x="837" 
d="M453 837q0 35 23 58t59 23t59.5 -23t23.5 -58q0 -36 -23.5 -58.5t-59.5 -22.5t-59 23t-23 58zM226 837q0 35 23 58t59 23t59 -23t23 -58q0 -36 -23 -58.5t-59 -22.5t-59 23t-23 58zM273 265l-263 435h317l92 -224h7l83 224h318l-264 -435v-265h-290v265z" />
    <glyph glyph-name="Zcaron" unicode="&#x17d;" horiz-adv-x="755" 
d="M28 0v152l317 359h-285v189h641v-152l-318 -359h338v-189h-693zM194 915h153l38 -73l38 73h153l-82 -155h-218z" />
    <glyph glyph-name="zcaron" unicode="&#x17e;" horiz-adv-x="755" 
d="M28 0v152l317 359h-285v189h641v-152l-318 -359h338v-189h-693zM194 915h153l38 -73l38 73h153l-82 -155h-218z" />
    <glyph glyph-name="florin" unicode="&#x192;" 
d="M368 -33q-10 -55 -32 -89t-56 -53.5t-78 -27t-98 -8.5l-48 161q42 2 62.5 16t28.5 57l45 259h-82l27 158h83l11 65q9 54 31 88.5t54 55t72 28.5t87 8q41 0 77 -8.5t55 -22.5l-40 -152q-19 11 -46 11q-31 0 -47 -15t-20 -37l-4 -21h82l-27 -158h-83z" />
    <glyph glyph-name="circumflex" unicode="&#x2c6;" horiz-adv-x="456" 
d="M119 915h218l82 -155h-153l-38 73l-38 -73h-153z" />
    <glyph glyph-name="caron" unicode="&#x2c7;" horiz-adv-x="456" 
d="M37 915h153l38 -73l38 73h153l-82 -155h-218z" />
    <glyph glyph-name="tilde" unicode="&#x2dc;" horiz-adv-x="417" 
d="M290 872q18 0 38 7.5t29 23.5l37 -101q-13 -23 -40.5 -35.5t-62.5 -12.5q-22 0 -43 6t-41 12.5t-39.5 12.5t-37.5 6q-17 0 -35.5 -7.5t-31.5 -24.5l-40 95q14 26 43.5 40.5t60.5 14.5q25 0 46 -6t40.5 -12.5t38 -12.5t38.5 -6z" />
    <glyph glyph-name="endash" unicode="&#x2013;" horiz-adv-x="658" 
d="M30 404h598v-128h-598v128z" />
    <glyph glyph-name="emdash" unicode="&#x2014;" horiz-adv-x="1067" 
d="M30 404h1007v-128h-1007v128z" />
    <glyph glyph-name="quoteleft" unicode="&#x2018;" horiz-adv-x="278" 
d="M238 442h-188l89 258h129z" />
    <glyph glyph-name="quoteright" unicode="&#x2019;" horiz-adv-x="278" 
d="M80 700h188l-89 -258h-129z" />
    <glyph glyph-name="quotesinglbase" unicode="&#x201a;" horiz-adv-x="316" 
d="M85 142h194l-94 -278h-135z" />
    <glyph glyph-name="quotedblleft" unicode="&#x201c;" horiz-adv-x="500" 
d="M420 442h-165l81 258h114zM215 442h-165l81 258h114z" />
    <glyph glyph-name="quotedblright" unicode="&#x201d;" horiz-adv-x="500" 
d="M80 700h165l-81 -258h-114zM285 700h165l-81 -258h-114z" />
    <glyph glyph-name="quotedblbase" unicode="&#x201e;" horiz-adv-x="505" 
d="M85 142h165l-86 -278h-114zM290 142h165l-86 -278h-114z" />
    <glyph glyph-name="dagger" unicode="&#x2020;" horiz-adv-x="534" 
d="M188 388h-143v147h143v165h157v-165h144v-147h-144v-488h-157v488z" />
    <glyph glyph-name="daggerdbl" unicode="&#x2021;" horiz-adv-x="533" 
d="M188 388h-143v147h143v165h156v-165h144v-147h-144v-176h144v-147h-144v-165h-156v165h-143v147h143v176z" />
    <glyph glyph-name="bullet" unicode="&#x2022;" horiz-adv-x="414" 
d="M370 349q0 -36 -12 -66t-33.5 -51.5t-51.5 -33.5t-66 -12t-66 12t-51.5 33.5t-33.5 51.5t-12 66t12 66t33.5 51.5t51.5 33.5t66 12t66 -12t51.5 -33.5t33.5 -51.5t12 -66z" />
    <glyph glyph-name="ellipsis" unicode="&#x2026;" horiz-adv-x="1183" 
d="M82 82q0 45 28.5 72.5t75.5 27.5q46 0 75.5 -27.5t29.5 -72.5t-29.5 -72.5t-75.5 -27.5q-47 0 -75.5 27.5t-28.5 72.5zM486 82q0 45 28.5 72.5t75.5 27.5q46 0 75.5 -27.5t29.5 -72.5t-29.5 -72.5t-75.5 -27.5q-47 0 -75.5 27.5t-28.5 72.5zM892 82q0 45 28.5 72.5
t75.5 27.5q46 0 75.5 -27.5t29.5 -72.5t-29.5 -72.5t-75.5 -27.5q-47 0 -75.5 27.5t-28.5 72.5z" />
    <glyph glyph-name="perthousand" unicode="&#x2030;" horiz-adv-x="1229" 
d="M24 510q0 85 44.5 128.5t125.5 43.5t125 -44t44 -129q0 -84 -44 -127t-125 -43t-125.5 43.5t-44.5 127.5zM479 160q0 85 44.5 128.5t125.5 43.5t125 -44t44 -129q0 -83 -44 -126.5t-125 -43.5t-125.5 44t-44.5 127zM583 672h139l-467 -672h-136zM147 509
q0 -40 12.5 -57.5t34.5 -17.5t34.5 17.5t12.5 57.5q0 42 -12.5 59.5t-34.5 17.5t-34.5 -17.5t-12.5 -59.5zM602 159q0 -40 12.5 -57.5t34.5 -17.5t34.5 17.5t12.5 57.5q0 42 -12.5 60t-34.5 18t-34.5 -18t-12.5 -60zM866 160q0 85 44.5 128.5t125.5 43.5t125 -44t44 -129
q0 -83 -44 -126.5t-125 -43.5t-125.5 44t-44.5 127zM989 159q0 -40 12.5 -57.5t34.5 -17.5t34.5 17.5t12.5 57.5q0 42 -12.5 60t-34.5 18t-34.5 -18t-12.5 -60z" />
    <glyph glyph-name="guilsinglleft" unicode="&#x2039;" horiz-adv-x="401" 
d="M51 349l122 192h177l-121 -192l121 -195h-177z" />
    <glyph glyph-name="guilsinglright" unicode="&#x203a;" horiz-adv-x="401" 
d="M228 154h-177l121 195l-121 192h177l122 -192z" />
    <glyph glyph-name="Euro" unicode="&#x20ac;" 
d="M68 458q15 60 45.5 104t71 72t88.5 41.5t99 13.5q36 0 67 -2.5t59 -9.5t54.5 -19t53.5 -30l-73 -153q-31 24 -59 34t-63 10q-26 0 -56 -12.5t-46 -48.5h152l-32 -93h-144v-53h139l-31 -94h-86q8 -20 20 -32.5t26 -19.5t29 -10t28 -3q42 0 71.5 16.5t57.5 56.5l104 -140
q-30 -31 -60 -51t-63 -31.5t-69 -16t-77 -4.5q-51 0 -99.5 13.5t-89.5 42t-72 73t-46 106.5h-67l33 94h21v53h-54l33 93h35z" />
    <glyph glyph-name="trademark" unicode="&#x2122;" horiz-adv-x="684" 
d="M117 613h-70v87h229v-87h-69v-173h-90v173zM326 700h110l40 -116h6l37 116h115v-260h-90v117h-4l-38 -117h-44l-39 117h-4v-117h-89v260z" />
    </font>
</defs>
</svg>
